<svg width="21" height="21" viewBox="0 0 21 21" fill="none" xmlns="http://www.w3.org/2000/svg">
<path d="M20.0102 14.1916C19.9332 14.0781 19.8116 14.0112 19.6824 14.0112H16.213V8.20015C16.213 6.96934 15.2975 5.968 14.1722 5.968H12.9477V3.74768C12.9477 3.0966 12.4758 2.56407 11.8865 2.5372V1.052C11.8865 0.566694 11.5255 0.171875 11.0818 0.171875H9.09926C8.65558 0.171875 8.29465 0.566694 8.29465 1.052V2.5372C7.70535 2.56407 7.23344 3.09664 7.23344 3.74768V5.968H6.00891C4.8836 5.968 3.96809 6.96934 3.96809 8.20015V10.7076H0.498722C0.369503 10.7076 0.247902 10.7745 0.17091 10.888C0.0939176 11.0015 0.0706364 11.1482 0.108058 11.2834L1.84677 17.5631C2.03809 18.2541 2.43458 18.904 2.96317 19.393C3.50602 19.8953 4.12801 20.1719 4.71457 20.1719H16.3812C16.9678 20.1719 17.5897 19.8953 18.1326 19.3931C18.6612 18.904 19.0577 18.2541 19.249 17.5631L20.0731 14.587C20.1105 14.4518 20.0871 14.3051 20.0102 14.1916ZM9.11094 1.06474H11.0701V2.53592H9.11094V1.06474ZM8.04973 3.74768C8.04973 3.57178 8.18051 3.42874 8.34129 3.42874H11.8398C12.0006 3.42874 12.1314 3.57178 12.1314 3.74768V5.968H8.04973V3.74768ZM4.78442 8.20011C4.78442 7.46165 5.33371 6.86086 6.00891 6.86086H14.1722C14.8474 6.86086 15.3967 7.46165 15.3967 8.20015V8.29688H11.7232C11.4978 8.29688 11.315 8.49675 11.315 8.74331V11.154C11.315 11.4006 11.4978 11.6004 11.7232 11.6004H15.3967V14.0111H8.62972L8.43742 13.3164C8.26055 12.6777 7.90816 12.0744 7.43844 11.6004H8.45789C8.68332 11.6004 8.86605 11.4006 8.86605 11.154V8.74331C8.86605 8.49675 8.68332 8.29688 8.45789 8.29688H4.78442V8.20011ZM15.3967 9.18974V10.7076H12.1314V9.18974H15.3967ZM4.78442 9.18974H8.04973V10.7076H4.78442V9.18974ZM18.4677 17.3043C18.1714 18.3747 17.2158 19.2791 16.3812 19.2791H4.71454C3.87989 19.2791 2.92438 18.3747 2.62802 17.3043L1.0488 11.6005H5.56961C6.40426 11.6005 7.35977 12.5048 7.65613 13.5752L7.93625 14.587C7.98836 14.7753 8.14703 14.9041 8.32691 14.9041H19.1323L18.4677 17.3043Z" fill="#24584C"/>
<path d="M4.51775 14.4991L3.98138 12.5998C3.92857 12.4128 3.77041 12.2852 3.59138 12.2852H2.12201C1.9924 12.2852 1.87049 12.3525 1.79357 12.4666C1.71662 12.5807 1.69381 12.7279 1.73205 12.8633L2.27631 14.7904C2.32912 14.9775 2.48724 15.1051 2.66631 15.1051H4.13568C4.13595 15.1051 4.13623 15.1051 4.1365 15.1051C4.36193 15.1051 4.54466 14.9052 4.54466 14.6587C4.54462 14.6025 4.53513 14.5486 4.51775 14.4991ZM2.9674 14.2122L2.67533 13.178H3.29029L3.58236 14.2122H2.9674Z" fill="#24584C"/>
<path d="M7.12996 14.4991L6.5936 12.5998C6.54078 12.4128 6.38266 12.2852 6.2036 12.2852H4.73422C4.60461 12.2852 4.4827 12.3525 4.40579 12.4666C4.32883 12.5807 4.30602 12.7279 4.34426 12.8633L4.88852 14.7904C4.94133 14.9775 5.09946 15.1051 5.27852 15.1051H6.74789C6.74813 15.1051 6.74844 15.1051 6.74871 15.1051C6.97414 15.1051 7.15688 14.9052 7.15688 14.6587C7.15688 14.6025 7.14738 14.5486 7.12996 14.4991ZM5.57961 14.2122L5.28754 13.178H5.9025L6.19457 14.2122H5.57961Z" fill="#24584C"/>
<path d="M17.3952 15.9009H17.3856C17.1602 15.9009 16.9775 16.1008 16.9775 16.3473C16.9775 16.5938 17.1602 16.7937 17.3856 16.7937H17.3952C17.6206 16.7937 17.8034 16.5938 17.8034 16.3473C17.8034 16.1008 17.6206 15.9009 17.3952 15.9009Z" fill="#24584C"/>
<path d="M16.0652 15.9009H12.1006C11.8752 15.9009 11.6925 16.1008 11.6925 16.3473C11.6925 16.5938 11.8752 16.7937 12.1006 16.7937H16.0652C16.2906 16.7937 16.4733 16.5938 16.4733 16.3473C16.4733 16.1008 16.2906 15.9009 16.0652 15.9009Z" fill="#24584C"/>
</svg>
