<svg width="21" height="21" viewBox="0 0 21 21" fill="none" xmlns="http://www.w3.org/2000/svg">
<path fill-rule="evenodd" clip-rule="evenodd" d="M19.0213 2.76718L14.3638 7.44156L17.1801 15.1884C17.3188 15.6322 17.2326 16.1822 17.0532 16.3616C16.5438 16.8716 16.1807 16.6291 15.9876 16.4153L11.4845 10.3316L6.49947 15.3341L7.39697 18.6653C7.0426 18.3103 4.97509 15.5416 4.92572 15.4909C4.89259 15.4584 2.17259 13.4309 1.87947 13.1359L5.07384 13.9984L10.1532 9.01031L4.11259 4.54031C3.93947 4.38531 3.71135 3.92781 4.1776 3.45968C4.3576 3.28031 4.90134 3.22593 5.34384 3.36531L13.057 6.16032L17.7776 1.52468C18.1076 1.19468 18.7532 1.22843 19.0426 1.51781C19.3313 1.80718 19.3513 2.43781 19.0213 2.76718ZM19.867 0.677814C19.0882 -0.103436 17.7195 0.0796766 16.9363 0.864677L12.9507 4.84093L5.55821 2.07844C4.85009 1.89531 4.13697 1.65844 3.25885 2.53906C2.81072 2.98781 1.87947 3.92156 3.25885 5.30344L8.32759 9.45343L5.02948 12.7447L1.95197 11.9753C1.49572 11.8578 1.18823 11.9497 0.953852 12.2084C0.835727 12.3559 -0.0211502 12.9909 0.57635 13.5897L4.15446 16.3734L6.93822 19.9516C7.37072 20.3853 7.77258 20.1147 8.32196 19.5928C8.67008 19.2441 8.59509 19.0647 8.49009 18.5566L7.79509 15.5003L11.0707 12.2134L15.2145 17.2834C16.5932 18.6653 17.5251 17.7309 17.9732 17.2834C18.852 16.4022 18.6157 15.6884 18.4326 14.9791L15.6932 7.57406L19.6626 3.59093C20.4457 2.80655 20.6463 1.45844 19.867 0.677814Z" fill="#24584C"/>
</svg>
