<svg width="21" height="21" viewBox="0 0 21 21" fill="none" xmlns="http://www.w3.org/2000/svg">
<g clip-path="url(#clip0_30_2395)">
<path d="M11.6412 1.71777C11.47 1.71777 11.3311 1.85656 11.3311 2.02789V2.69992H10.5455V2.02789C10.5455 1.8566 10.4067 1.71777 10.2354 1.71777C10.0642 1.71777 9.92531 1.85656 9.92531 2.02789V3.99219C9.92531 4.16348 10.0641 4.3023 10.2354 4.3023C10.4067 4.3023 10.5455 4.16352 10.5455 3.99219V3.32012H11.3311V3.99215C11.3311 4.16344 11.4699 4.30227 11.6412 4.30227C11.8126 4.30227 11.9514 4.16348 11.9514 3.99215V2.02789C11.9513 1.8566 11.8125 1.71777 11.6412 1.71777Z" fill="#24584C"/>
<path d="M20.4612 18.0487H18.9213V6.59225C19.255 6.52799 19.508 6.23424 19.508 5.88209V5.37877C19.508 4.97982 19.1834 4.65521 18.7844 4.65521H18.2632L16.6317 1.46381C16.425 1.05943 15.9072 0.742676 15.4531 0.742676H6.42363C5.96949 0.742676 5.45179 1.05943 5.24499 1.46381L3.61355 4.65529H3.09234C2.69339 4.65529 2.36878 4.9799 2.36878 5.37885V5.88217C2.36878 6.23428 2.62171 6.52803 2.95535 6.59232V18.0488H1.41546C1.15238 18.0487 0.938354 18.2628 0.938354 18.5259V19.1236C0.938354 19.3867 1.15238 19.6007 1.41546 19.6007H20.4613C20.7243 19.6007 20.9384 19.3867 20.9384 19.1236V18.5259C20.9384 18.2628 20.7243 18.0487 20.4612 18.0487ZM5.04988 3.20803H9.04031V2.58783H5.36691L5.79722 1.74615C5.89976 1.54553 6.19832 1.36287 6.42363 1.36287H15.4531C15.6784 1.36287 15.9769 1.54553 16.0795 1.74615L16.5098 2.58783H12.8364V3.20803H16.8268L17.5666 4.65525H4.31007L5.04988 3.20803ZM2.98898 5.37881C2.98898 5.32279 3.03632 5.27545 3.09234 5.27545H18.7843C18.8403 5.27545 18.8877 5.32279 18.8877 5.37881V5.88213C18.8877 5.93814 18.8403 5.98549 18.7843 5.98549H3.09234C3.03632 5.98549 2.98898 5.93814 2.98898 5.88213V5.37881ZM13.1502 13.7579H8.72648C8.55523 13.7579 8.41636 13.8967 8.41636 14.068V18.0487H3.5755V6.60564H18.3011V18.0487H13.4602V14.068C13.4603 13.8967 13.3214 13.7579 13.1502 13.7579ZM12.8401 14.3781V18.0487H11.2484V14.3781H12.8401ZM10.6282 14.3781V18.0487H9.03656V14.3781H10.6282ZM7.10214 18.9805H1.55855V18.6689H7.10214V18.9805ZM14.1544 18.9805H7.72234V18.6689H14.1544V18.9805ZM20.3182 18.9805H14.7746V18.6689H20.3182V18.9805Z" fill="#24584C"/>
<path d="M14.5776 11.6329H17.2593C17.4305 11.6329 17.5694 11.4942 17.5694 11.3228V8.29205C17.5694 8.12076 17.4306 7.98193 17.2593 7.98193H14.5776C14.4064 7.98193 14.2675 8.12072 14.2675 8.29205V11.3228C14.2676 11.4942 14.4064 11.6329 14.5776 11.6329ZM14.8878 8.60217H16.9492V9.49736H14.8878V8.60217ZM14.8878 10.1176H16.9492V11.0128H14.8878V10.1176Z" fill="#24584C"/>
<path d="M14.5776 15.8937H17.2593C17.4305 15.8937 17.5694 15.7548 17.5694 15.5835V12.5528C17.5694 12.3815 17.4306 12.2427 17.2593 12.2427H14.5776C14.4064 12.2427 14.2675 12.3815 14.2675 12.5528V15.5836C14.2676 15.7549 14.4064 15.8937 14.5776 15.8937ZM14.8878 12.8629H16.9492V13.7581H14.8878V12.8629ZM14.8878 14.3783H16.9492V15.2735H14.8878V14.3783Z" fill="#24584C"/>
<path d="M12.2792 7.98193H9.59749C9.42624 7.98193 9.28738 8.12072 9.28738 8.29205V11.3228C9.28738 11.4941 9.4262 11.6329 9.59749 11.6329H12.2792C12.4505 11.6329 12.5893 11.4942 12.5893 11.3228V8.29205C12.5893 8.12076 12.4505 7.98193 12.2792 7.98193ZM11.9691 11.0127H9.90761V10.1176H11.9691V11.0127ZM11.9691 9.49736H9.90761V8.60217H11.9691V9.49736Z" fill="#24584C"/>
<path d="M7.29906 12.2427H4.61738C4.44613 12.2427 4.30726 12.3815 4.30726 12.5528V15.5836C4.30726 15.7548 4.44609 15.8937 4.61738 15.8937H7.29906C7.47031 15.8937 7.60918 15.7549 7.60918 15.5836V12.5528C7.60914 12.3815 7.47031 12.2427 7.29906 12.2427ZM6.98894 15.2735H4.9275V14.3783H6.98894V15.2735ZM6.98894 13.7581H4.9275V12.8629H6.98894V13.7581Z" fill="#24584C"/>
<path d="M7.29906 7.98193H4.61738C4.44613 7.98193 4.30726 8.12072 4.30726 8.29205V11.3228C4.30726 11.4941 4.44609 11.6329 4.61738 11.6329H7.29906C7.47031 11.6329 7.60918 11.4942 7.60918 11.3228V8.29205C7.60914 8.12076 7.47031 7.98193 7.29906 7.98193ZM6.98894 11.0127H4.9275V10.1176H6.98894V11.0127ZM6.98894 9.49736H4.9275V8.60217H6.98894V9.49736Z" fill="#24584C"/>
</g>
<defs>
<clipPath id="clip0_30_2395">
<rect width="20" height="20" fill="white" transform="translate(0.938354 0.171875)"/>
</clipPath>
</defs>
</svg>
