<svg width="21" height="21" viewBox="0 0 21 21" fill="none" xmlns="http://www.w3.org/2000/svg">
<g clip-path="url(#clip0_30_2408)">
<path d="M10.0315 10.3708C10.106 10.2259 10.0933 10.0516 9.99869 9.91908L8.00527 7.12836H9.64487C9.80772 7.12836 9.95694 7.0373 10.0315 6.89254C10.106 6.7477 10.0933 6.57336 9.99869 6.44086L5.65087 0.353905C5.56923 0.239687 5.43743 0.171875 5.29704 0.171875C5.15665 0.171875 5.02486 0.239687 4.94322 0.353944L0.595428 6.4409C0.500781 6.57344 0.488124 6.74777 0.562655 6.89258C0.637186 7.0373 0.786404 7.12836 0.949255 7.12836H2.58885L0.595428 9.91912C0.500781 10.0517 0.488124 10.226 0.562655 10.3708C0.637186 10.5155 0.786404 10.6066 0.949255 10.6066H2.58885L0.595428 13.3973C0.500781 13.5299 0.488124 13.7042 0.562655 13.849C0.637186 13.9937 0.786404 14.0848 0.949255 14.0848H3.99271V19.737C3.99271 19.9771 4.1874 20.1718 4.42748 20.1718H6.16661C6.40668 20.1718 6.60137 19.9771 6.60137 19.737V17.9979C6.60137 17.7578 6.40668 17.5631 6.16661 17.5631C5.92653 17.5631 5.73184 17.7578 5.73184 17.9979V19.3022H4.86228V14.0848H5.73184V15.3892C5.73184 15.6292 5.92653 15.8239 6.16661 15.8239C6.40668 15.8239 6.60137 15.6292 6.60137 15.3892V14.0848H9.64483C9.80768 14.0848 9.9569 13.9938 10.0314 13.849C10.106 13.7042 10.0933 13.5298 9.99866 13.3973L8.00523 10.6066H9.64483C9.80772 10.6066 9.95694 10.5156 10.0315 10.3708ZM7.16039 9.73705C6.99754 9.73705 6.84832 9.82811 6.77379 9.97287C6.69926 10.1177 6.71192 10.2921 6.80656 10.4246L8.79999 13.2153H6.16661H4.42748H1.79413L3.78756 10.4245C3.88221 10.292 3.89486 10.1176 3.82033 9.97283C3.7458 9.82807 3.59658 9.73701 3.43373 9.73701H1.79413L3.78756 6.94625C3.88221 6.81371 3.89486 6.63938 3.82033 6.49457C3.7458 6.34981 3.59658 6.25875 3.43373 6.25875H1.79413L5.29704 1.35468L8.79999 6.25879H7.16039C6.99754 6.25879 6.84832 6.34985 6.77379 6.49461C6.69926 6.63945 6.71192 6.81379 6.80656 6.94629L8.79999 9.73701L7.16039 9.73705Z" fill="#24584C"/>
<path d="M6.59255 16.6086C6.58689 16.5808 6.57864 16.5533 6.56778 16.5273C6.55696 16.5007 6.54353 16.4755 6.52786 16.452C6.51224 16.4281 6.494 16.4059 6.47396 16.3859C6.45396 16.3659 6.43177 16.3477 6.40786 16.332C6.38439 16.3164 6.35915 16.3029 6.33263 16.292C6.30654 16.2812 6.27919 16.2724 6.25138 16.2673C6.19529 16.256 6.13747 16.256 6.08181 16.2673C6.054 16.2724 6.02658 16.2812 6.00052 16.292C5.974 16.3029 5.94884 16.3164 5.92537 16.332C5.90142 16.3477 5.87923 16.3659 5.85923 16.3859C5.83923 16.4059 5.82099 16.4281 5.80533 16.452C5.78923 16.4755 5.77619 16.5007 5.76533 16.5272C5.75447 16.5533 5.74576 16.5807 5.74009 16.6085C5.73443 16.6363 5.73177 16.6651 5.73177 16.6933C5.73177 16.7215 5.73439 16.7503 5.73998 16.7781C5.74564 16.8059 5.75431 16.8333 5.76521 16.8594C5.77607 16.8859 5.78959 16.9111 5.80521 16.9346C5.82087 16.9585 5.83912 16.9807 5.85912 17.0007C5.87912 17.0207 5.9013 17.039 5.92525 17.0546C5.94873 17.0702 5.97392 17.0837 6.0004 17.0946C6.02654 17.1054 6.05388 17.1142 6.08169 17.1194C6.10951 17.125 6.13822 17.1281 6.16646 17.1281C6.19466 17.1281 6.22341 17.125 6.25122 17.1194C6.27904 17.1141 6.30646 17.1054 6.33247 17.0946C6.359 17.0837 6.38423 17.0702 6.40771 17.0546C6.43161 17.039 6.4538 17.0207 6.4738 17.0007C6.49384 16.9807 6.51212 16.9585 6.52771 16.9346C6.54337 16.9111 6.55685 16.8859 6.56771 16.8594C6.57857 16.8333 6.58685 16.8059 6.59247 16.7781C6.59814 16.7503 6.60118 16.7215 6.60118 16.6933C6.60126 16.6651 6.59821 16.6363 6.59255 16.6086Z" fill="#24584C"/>
<path d="M20.4661 10.3708C20.5406 10.2259 20.528 10.0516 20.4333 9.91908L18.4399 7.12836H20.0795C20.2423 7.12836 20.3916 7.0373 20.4661 6.89254C20.5406 6.7477 20.528 6.57336 20.4333 6.44086L16.0855 0.353905C16.0039 0.239687 15.8721 0.171875 15.7317 0.171875C15.5913 0.171875 15.4595 0.239687 15.3779 0.353944L11.0301 6.4409C10.9354 6.57344 10.9228 6.74777 10.9973 6.89258C11.0719 7.03734 11.2211 7.1284 11.3839 7.1284H13.0235L11.0301 9.91916C10.9354 10.0517 10.9228 10.226 10.9973 10.3708C11.0719 10.5156 11.2211 10.6067 11.3839 10.6067H13.0235L11.0301 13.3974C10.9354 13.53 10.9228 13.7043 10.9973 13.8491C11.0719 13.9939 11.2211 14.0849 11.3839 14.0849H14.4274V19.7371C14.4274 19.9771 14.6221 20.1718 14.8621 20.1718H16.6013C16.8414 20.1718 17.036 19.9771 17.036 19.7371V14.0848H20.0795C20.2423 14.0848 20.3916 13.9938 20.4661 13.849C20.5406 13.7042 20.528 13.5298 20.4333 13.3973L18.4399 10.6066H20.0795C20.2424 10.6066 20.3916 10.5156 20.4661 10.3708ZM16.1665 19.3022H15.2969V14.0848H16.1665V19.3022ZM17.5951 9.73705C17.4322 9.73705 17.283 9.82811 17.2085 9.97287C17.1339 10.1177 17.1466 10.2921 17.2412 10.4246L19.2347 13.2153H16.6013H14.8621H12.2288L14.2222 10.4245C14.3168 10.292 14.3295 10.1176 14.255 9.97283C14.1804 9.82807 14.0312 9.73701 13.8684 9.73701H12.2288L14.2222 6.94625C14.3168 6.81371 14.3295 6.63938 14.255 6.49457C14.1804 6.34981 14.0312 6.25875 13.8684 6.25875H12.2288L15.7317 1.35468L19.2347 6.25879H17.5951C17.4322 6.25879 17.283 6.34985 17.2085 6.49461C17.1339 6.63945 17.1466 6.81379 17.2412 6.94629L19.2347 9.73701L17.5951 9.73705Z" fill="#24584C"/>
</g>
<defs>
<clipPath id="clip0_30_2408">
<rect width="20" height="20" fill="white" transform="translate(0.514343 0.171875)"/>
</clipPath>
</defs>
</svg>
